#!OML:ASF E:/inclinewalkrobotboard/Project1/Captureday1/Session1/subject1.ASF
:FULLY-SPECIFIED
:DEGREES
263
root 0 0 0 -4.716935344465043 -4.036915204494411 1.1005514570910715
lowerback 11.456490953160781 0.4385849562015253 -2.042708377679827
upperback 0.11834410387719752 0.3824731540149623 0.6871289333473842
thorax -6.3538371763689305 0.24612601747770213 1.8232177891924488
lowerneck -17.628153960680418 -2.6280034032255246 -1.8487884536892039
upperneck 18.092279884776964 -3.2403073547463546 0.24289659109507578
head 8.694305150718733 -1.6136780203060144 -0.018600283058813227
rclavicle -2.725131700481853E-15 9.657749028042625E-16
rhumerus -34.22401504949827 -22.630094031835775 -78.46136072214979
rradius 19.329841738826644
rwrist 7.511017079758177
rhand -17.83448047816454 25.82789620084288
rfingers 7.125020000000023
rthumb 8.426063118664239 -3.9638072552741193
lclavicle -2.6815809230066316E-15 6.40367252678081E-16
lhumerus -36.87302649117551 7.130455700074809 79.61446046961943
lradius 22.331101882741002
lwrist 2.605650414894657
lhand -26.5604823962281 23.752304767294607
lfingers 7.12502000000002
lthumb -0.008362383525378547 53.719628791126425
rfemur -20.941413252034774 0.3089992741327521 23.53737789925121
rtibia 65.52881347103164
rfoot -1.6628825696618974 -4.674126813217281
rtoes 9.821119175127908
lfemur 2.8010469022314632 -3.586604992782809 -27.71485283491163
ltibia 20.345580889334393
lfoot -16.64477932814536 0.6191128279497744
ltoes -0.5949261028165296
264
root 0 0 0 -4.2738070281778455 -2.9743014434911337 1.5575227025709402
lowerback 10.981129520000867 -0.1295461125792029 -2.718520235472
upperback 0.22050297537655467 -0.45584693705887314 0.8490887934603597
thorax -5.975787423955825 -0.1470313066522001 2.4976265809757145
lowerneck -17.635338108290767 -2.492246509154988 -2.12483862767047
upperneck 18.373702122946533 -2.9992927710563313 0.2521989722263436
head 8.736569743652892 -1.5166870009480546 0.05894242707137015
rclavicle -2.4261406698353654E-15 2.9017865547947593E-16
rhumerus -34.24747869414635 -22.48983568648744 -78.52088585975565
rradius 19.520790869265134
rwrist 7.448155881956027
rhand -17.8854716003774 25.8002589733454
rfingers 7.125020000000024
rthumb 8.37695230086598 -4.004462608960118
lclavicle -2.342450272042122E-15 -1.1317267690164416E-17
lhumerus -34.73422737568679 5.056877839228291 79.51030641529309
lradius 24.308103639367307
lwrist 3.505311998021395
lhand -26.800738323793517 24.202832622680948
lfingers 7.125020000000015
lthumb -0.24088867195753938 54.16860106835166
rfemur -32.13258640030192 -0.46305333338182386 20.32156149870512
rtibia 61.26081395174622
rfoot -5.84306115374157 -7.713453257649558
rtoes 3.6214094131569814
lfemur 5.184518026534575 -3.4158856687556245 -28.574284603603466
ltibia 20.253580332796624
lfoot -18.193186368058686 0.8644094011914132
ltoes -1.578831361469902
265
root 0 0 0 -3.188050463875853 -1.9376227676220565 2.0386032086559376
lowerback 10.564404097937636 -0.6290500515453156 -3.4219929485689393
upperback 0.5219879528773478 -1.1940131135510594 1.0257294348890948
thorax -5.366066816658362 -0.4955022747726363 3.1782070017489725
lowerneck -16.83242592872004 -2.3488538610372847 -2.1030386951557998
upperneck 18.753401624068346 -2.7506470162684904 0.19010349585481512
head 8.658101953042317 -1.4121634254291362 0.06946806891965185
rclavicle -1.569834513641741E-15 -4.301346517279093E-16
rhumerus -34.41077248112718 -22.30233056539126 -78.60813072878433
rradius 19.762887851138025
rwrist 7.331039866029694
rhand -17.958455102884948 25.756127761398737
rfingers 7.125020000000024
rthumb 8.305653749621067 -4.0611812670034695
lclavicle -1.2933831535769308E-15 -1.0152794704772757E-15
lhumerus -31.155722787503784 1.2839601903442361 79.49849673908976
lradius 27.907052307873933
lwrist 5.4442864279418846
lhand -27.344642996807174 25.151403783469604
lfingers 7.125020000000007
lthumb -0.7662591208557377 55.13109141333226
rfemur -34.778080197827364 -0.020471385623048288 18.41088466676836
rtibia 52.66419501348355
rfoot -7.079424973819014 -9.17674770084389
rtoes 0.7943735403630747
lfemur 6.0916937428993245 -3.0653450823569095 -28.970296235782985
ltibia 20.172844546877215
lfoot -18.717811952096483 0.8300283650870721
ltoes -1.3935130884758102
266
root 0 0 0 -1.9882465598646677 -0.8821110071122324 2.49733625244956
lowerback 10.461880686209483 -1.042423234458001 -4.144414512379984
upperback 0.5913263865877884 -1.8019850622671398 1.2380009312851037
thorax -5.162811674776727 -0.7806325102854217 3.874956469950212
lowerneck -16.706788348758234 -2.3662286080372925 -2.0615227437841073
upperneck 19.235138369653235 -2.685577230067361 -0.12257720654615767
head 8.77688477906148 -1.4179773777122853 -0.0412468518167069
rclavicle -1.6384982200107336E-16 -1.3871197697985934E-16
rhumerus -34.60922064653711 -22.342209681697916 -78.4302415539258
rradius 20.164789495017686
rwrist 6.778501845920931
rhand -18.08452691360367 25.433503141449343
rfingers 7.125020000000026
rthumb 8.184830095091296 -4.404125621277906
lclavicle -1.024226446961866E-16 -9.097696934993963E-16
lhumerus -28.012553582765307 -1.8565054079955747 79.91022018854441
lradius 30.693816224685047
lwrist 7.049257985672336
lhand -27.795263776987106 26.036530876658457
lfingers 7.125020000000001
lthumb -1.2064145852628467 56.0411307911368
rfemur -34.81500246374413 1.5040626608621313 17.663744953377616
rtibia 42.31139337943687
rfoot -7.683546643268128 -10.527574735345011
rtoes -0.741402473172373
lfemur 6.7631347354824785 -2.8799618326465772 -29.013925198248057
ltibia 19.96145418226098
lfoot -18.488666670010026 0.4800212732026061
ltoes -1.5865185713497034
267
root 0 0 0 -1.400243048251706 -0.14323879470335976 2.743595179937587
lowerback 10.58667763414412 -1.2524514459498737 -4.560740058870593
upperback 0.6074240757449075 -2.108815329469593 1.3820453031998245
thorax -5.155978316866139 -0.9245335460720929 4.29016844520554
lowerneck -17.246142904927147 -2.4873367091775433 -2.1873438330039563
upperneck 19.45525262350419 -2.8194373170527873 -0.19537276981912322
head 8.966533388814709 -1.4911513538677597 -0.07478587263489317
rclavicle 1.7797699879019033E-16 3.844979894459099E-16
rhumerus -34.878864899785896 -22.79808570230739 -78.0585700971031
rradius 20.184248206858975
rwrist 6.223988002532319
rhand -18.16108854930293 25.113483113905566
rfingers 7.125020000000027
rthumb 8.111875630695872 -4.732492859939423
lclavicle -1.277776214604233E-16 -3.6003009887576547E-16
lhumerus -26.714235321136663 -3.0540827685570986 80.25703096166532
lradius 31.63884992705983
lwrist 7.41133952751562
lhand -27.829128392856518 26.100064479814645
lfingers 7.1250199999999975
lthumb -1.2436064796398973 56.110228179034124
rfemur -34.95339320731253 4.462680732446295 19.555945395736092
rtibia 29.480353845303817
rfoot -9.626226736391917 -12.477516571105504
rtoes -1.7590056441210555
lfemur 8.101171593020048 -2.9191469927923297 -28.845852189392893
ltibia 19.72832038527146
lfoot -17.357485761883698 -0.49582081205853745
ltoes -2.402537871830564
268
root 0 0 0 -1.3029234070314426 0.25582604631369854 2.553911634969104
lowerback 10.600040914317141 -1.3639858223444166 -4.465863978448047
upperback 0.5728619213676307 -2.2320841511770597 1.5130252053087432
thorax -5.176456482352219 -0.9888377325097515 4.388504095139838
lowerneck -17.62074887103807 -2.5307204258472087 -2.2492907029835076
upperneck 19.525080506284297 -2.8868960493022597 -0.1878016007291512
head 9.067357392076305 -1.5176557631813572 -0.07738747914675448
rclavicle -6.312582639132653E-16 6.735070774429467E-16
rhumerus -35.1800030227507 -23.36048253626575 -77.748190679003
rradius 19.700806995936972
rwrist 6.342827803606691
rhand -18.11901290411677 25.0740576400552
rfingers 7.125020000000026
rthumb 8.152484825936538 -4.762372276076448
lclavicle -1.1176604293963747E-15 -3.1106025569793076E-17
lhumerus -26.481251615386526 -3.3737204364608795 80.45261512595596
lradius 31.823906913517412
lwrist 7.486107456574846
lhand -27.83881322282216 25.984089864145655
lfingers 7.125019999999996
lthumb -1.2543697846475856 55.99302210818567
rfemur -33.8715586216586 5.646333774986366 20.294365222179824
rtibia 24.34242937693141
rfoot -9.922274941224195 -12.703025352874198
rtoes -2.6048139626962605
lfemur 10.443744560337361 -3.2189085866120553 -28.52237945153785
ltibia 19.63791431867397
lfoot -15.17600387546519 -2.311760717656138
ltoes -3.9265629428598636
269
root 0 0 0 -1.4103419044399685 0.5981808239382516 1.7540591626675606
lowerback 10.41421711842601 -1.4857548192332204 -3.837288859021889
upperback 0.4118053985524771 -2.3021582980439943 1.762926736302256
thorax -5.238077521839629 -1.0377008672122758 4.310270214629775
lowerneck -18.00625965914177 -2.4786394946163575 -2.2137420680656668
upperneck 19.912722902297208 -2.853624423759472 -0.24828850443326345
head 9.274133294395046 -1.4875364929964237 -0.10680625940332072
rclavicle -1.1108386279198645E-15 4.881681883519895E-16
rhumerus -35.53390202989443 -23.946509900705003 -77.48458867681384
rradius 19.050725115137844
rwrist 6.9127540736901265
rhand -18.03175927701548 25.132620262614154
rfingers 7.125020000000024
rthumb 8.236279752371978 -4.691843084795927
lclavicle -1.929559309486431E-15 -1.982245224421993E-16
lhumerus -26.7647299361058 -3.3082938348544326 80.5730311897993
lradius 31.731017606173673
lwrist 7.495421228581483
lhand -27.833601157841393 25.925643922365207
lfingers 7.125019999999996
lthumb -1.2489790101774778 55.93260550420139
rfemur -31.614015135777873 5.956252417931696 20.747338329060813
rtibia 23.02955290878745
rfoot -9.406338744551695 -11.432605940897941
rtoes -1.668294403421153
lfemur 12.907500933258206 -3.5334968303474357 -28.11268996039955
ltibia 20.445873013349775
lfoot -12.312156637962072 -4.663974448052455
ltoes -5.90863117121199
270
root 0 0 0 -1.5715710600612232 0.9171075742707835 -0.02231915872055401
lowerback 9.787092414972543 -1.6484822459972808 -2.437524739281451
upperback 0.06454178777170677 -2.3305736658775524 2.243906002544517
thorax -5.258545581657026 -1.0795024551243593 4.0426621154836395
lowerneck -18.5042660437402 -2.2788147320943435 -2.056408249733423
upperneck 21.494863988709234 -2.6772245656017555 -0.40857362164162225
head 9.914403710464601 -1.3690089066095426 -0.1804510209137115
rclavicle -1.2589406133316647E-15 -1.6388540460489497E-16
rhumerus -35.853382101165366 -24.432986769978758 -77.29113890352137
rradius 18.464233566929344
rwrist 7.549513467810974
rhand -17.94399945000209 25.205989653617806
rfingers 7.125020000000023
rthumb 8.320554066256886 -4.608919781803692
lclavicle -2.5942338776513422E-15 -8.436000958907305E-16
lhumerus -27.39392833035224 -3.0563679141730744 80.79936750564404
lradius 31.46884160861614
lwrist 7.451814234840606
lhand -27.784953423255914 25.850300012132266
lfingers 7.125019999999998
lthumb -1.1992230655050875 55.85227327956905
rfemur -24.26996792935997 6.424896838809154 22.366891001185554
rtibia 20.91192842502992
rfoot -9.024335765036458 -8.231526600493478
rtoes 2.8493872109279925
lfemur 14.998481668404178 -3.5628257561184804 -27.19124609318854
ltibia 25.91563231647572
lfoot -7.349583101577581 -8.42066443318106
ltoes -8.387215369722426
